<?xml version="1.0" encoding="UTF-8" standalone="no"?>
<svg width="800" height="500" xmlns="http://www.w3.org/2000/svg">
  <!-- Tło -->
  <rect width="800" height="500" fill="#f8f9fa" rx="10" ry="10" />

  <!-- Ramka okna przeglądarki -->
  <rect x="20" y="20" width="760" height="460" rx="5" ry="5" fill="white" stroke="#ddd" stroke-width="1" />
  
  <!-- Górna część przeglądarki -->
  <rect x="20" y="20" width="760" height="40" rx="5" ry="5" fill="#f1f3f4" stroke="#ddd" stroke-width="1" />
  
  <!-- Pasek adresu -->
  <rect x="140" y="30" width="500" height="20" rx="10" ry="10" fill="white" stroke="#ddd" stroke-width="1" />
  <text x="150" y="45" font-family="Arial" font-size="12" fill="#555">https://example.com</text>
  
  <!-- Ikona wtyczki -->
  <circle cx="670" cy="40" r="10" fill="#f8f9fa" stroke="#ddd" stroke-width="1" />
  <circle cx="670" cy="40" r="8" fill="#ff9800" stroke="none" />
  <text x="667" y="44" font-family="Arial" font-size="10" fill="white" font-weight="bold">Z</text>
  
  <!-- Popup wtyczki -->
  <rect x="550" y="70" width="220" height="320" rx="5" ry="5" fill="white" stroke="#ddd" stroke-width="1" />
  
  <!-- Nagłówek popupu -->
  <rect x="550" y="70" width="220" height="40" rx="5" ry="5" fill="#4285f4" />
  <text x="560" y="95" font-family="Arial" font-size="14" fill="white" font-weight="bold">Wykrywacz niewidocznych znaków</text>
  
  <!-- Przyciski -->
  <rect x="560" y="120" width="200" height="30" rx="3" ry="3" fill="#4285f4" />
  <text x="580" y="140" font-family="Arial" font-size="12" fill="white">Podświetl niewidoczne znaki</text>
  
  <rect x="560" y="160" width="200" height="30" rx="3" ry="3" fill="#f8f9fa" stroke="#ddd" stroke-width="1" />
  <text x="600" y="180" font-family="Arial" font-size="12" fill="#333">Wyczyść podświetlenia</text>
  
  <!-- Przełącznik trybu automatycznego -->
  <rect x="560" y="200" width="200" height="30" rx="3" ry="3" fill="#f8f9fa" stroke="#ddd" stroke-width="0" />
  <text x="580" y="220" font-family="Arial" font-size="12" fill="#333">Tryb automatyczny</text>
  <rect x="720" y="205" width="30" height="15" rx="7.5" ry="7.5" fill="#4CAF50" />
  <circle cx="740" cy="213" r="7" fill="white" />
  
  <!-- Nawigacja -->
  <rect x="560" y="240" width="200" height="50" rx="3" ry="3" fill="#f8f9fa" stroke="#ddd" stroke-width="1" />
  <text x="635" y="260" font-family="Arial" font-size="12" fill="#333">Nawigacja: 3/7</text>
  
  <rect x="570" y="265" width="80" height="20" rx="3" ry="3" fill="#4285f4" />
  <text x="585" y="280" font-family="Arial" font-size="12" fill="white">◀ Poprzedni</text>
  
  <rect x="670" y="265" width="80" height="20" rx="3" ry="3" fill="#4285f4" />
  <text x="685" y="280" font-family="Arial" font-size="12" fill="white">Następny ▶</text>
  
  <!-- Lista znaków -->
  <rect x="560" y="300" width="200" height="80" rx="3" ry="3" fill="#f8f9fa" stroke="#ddd" stroke-width="1" />
  <text x="590" y="320" font-family="Arial" font-size="12" fill="#333">Lista wykrywanych znaków</text>
  
  <!-- Zawartość strony z podświetleniami -->
  <rect x="40" y="80" width="490" height="380" fill="white" />
  <text x="60" y="120" font-family="Arial" font-size="14" fill="#333">
    <tspan x="60" y="120">Ten tekst zawiera </tspan>
    <tspan x="175" y="120" fill="red" stroke="#ffcccc" stroke-width="1">ZWSP</tspan>
    <tspan x="215" y="120"> niewidoczne znaki.</tspan>
  </text>
  
  <text x="60" y="160" font-family="Arial" font-size="14" fill="#333">
    <tspan x="60" y="160">Emotikonka:</tspan>
    <tspan x="140" y="160">👨</tspan>
    <tspan x="160" y="160" fill="red" stroke="#ffcccc" stroke-width="1">ZWJ</tspan>
    <tspan x="190" y="160">👩</tspan>
    <tspan x="210" y="160" fill="red" stroke="#ffcccc" stroke-width="1">ZWJ</tspan>
    <tspan x="240" y="160">👧</tspan>
    <tspan x="260" y="160"> (rodzina)</tspan>
  </text>
  
  <text x="60" y="200" font-family="Arial" font-size="14" fill="#333">
    <tspan x="60" y="200">Znak kierunkowy </tspan>
    <tspan x="175" y="200" fill="red" stroke="#ffcccc" stroke-width="1">RTL</tspan>
    <tspan x="210" y="200"> zmienia kierunek tekstu.</tspan>
  </text>
  
  <text x="60" y="240" font-family="Arial" font-size="14" fill="#333">
    <tspan x="60" y="240">Aktualnie</tspan>
    <tspan x="125" y="240" fill="orange" stroke="#ff9900" stroke-width="2">ZWSP</tspan>
    <tspan x="165" y="240"> wybrany znak.</tspan>
  </text>
  
  <!-- Statystyki podświetleń -->
  <rect x="60" y="340" width="450" height="100" rx="3" ry="3" fill="#f8f9fa" stroke="#ddd" stroke-width="1" />
  <text x="70" y="360" font-family="Arial" font-size="14" font-weight="bold" fill="#333">Znaleziono 7 niewidocznych znaków:</text>
  <text x="80" y="385" font-family="Arial" font-size="12" fill="#333">
    <tspan x="80" y="385">Zero-width space (U+200B): 3</tspan>
    <tspan x="80" y="405">Zero-width joiner (U+200D): 2</tspan>
    <tspan x="80" y="425">Right-to-left mark (U+200F): 2</tspan>
  </text>
</svg>
